<svg xmlns="http://www.w3.org/2000/svg" xmlns:xlink="http://www.w3.org/1999/xlink" width="500" zoomAndPan="magnify" viewBox="0 0 375 374.999991" height="500" preserveAspectRatio="xMidYMid meet" version="1.0"><defs><g/><clipPath id="2eff2e4b94"><path d="M 5.601562 5.601562 L 369.398438 5.601562 L 369.398438 369.398438 L 5.601562 369.398438 Z M 5.601562 5.601562 " clip-rule="nonzero"/></clipPath><clipPath id="02f462f727"><path d="M 187.5 5.601562 C 87.039062 5.601562 5.601562 87.039062 5.601562 187.5 C 5.601562 287.960938 87.039062 369.398438 187.5 369.398438 C 287.960938 369.398438 369.398438 287.960938 369.398438 187.5 C 369.398438 87.039062 287.960938 5.601562 187.5 5.601562 " clip-rule="nonzero"/></clipPath><clipPath id="be1cc89f6b"><path d="M 94.433594 111 L 260 111 L 260 204.644531 L 94.433594 204.644531 Z M 94.433594 111 " clip-rule="nonzero"/></clipPath><clipPath id="5c0aabe035"><path d="M 221.097656 164.625 L 208.480469 177.222656 C 207.839844 177.863281 207.171875 178.457031 206.488281 179.007812 C 202.144531 182.476562 196.855469 184.210938 191.566406 184.210938 C 186.1875 184.210938 180.8125 182.417969 176.425781 178.828125 C 175.816406 178.328125 175.222656 177.796875 174.652344 177.21875 L 161.832031 164.417969 L 137.851562 140.46875 L 137.761719 140.558594 L 108.414062 111.25 L 94.585938 125.070312 L 123.9375 154.382812 L 147.914062 178.328125 L 162.035156 192.429688 C 162.164062 192.5625 162.292969 192.6875 162.425781 192.816406 C 170.261719 200.449219 180.597656 204.648438 191.566406 204.648438 C 202.441406 204.648438 212.691406 200.523438 220.503906 193.011719 C 220.699219 192.824219 220.902344 192.625 221.097656 192.429688 L 235.019531 178.53125 L 259.199219 154.382812 L 245.277344 140.476562 Z M 221.097656 164.625 " clip-rule="nonzero"/></clipPath><linearGradient x1="0.0000016129" gradientTransform="matrix(0.408565, 0, 0, 0.408021, 94.584643, 45.514739)" y1="275.56201" x2="402.910048" gradientUnits="userSpaceOnUse" y2="275.56201" id="5279999b74"><stop stop-opacity="1" stop-color="rgb(77.598572%, 55.699158%, 23.498535%)" offset="0"/><stop stop-opacity="1" stop-color="rgb(77.705383%, 55.860901%, 23.654175%)" offset="0.0078125"/><stop stop-opacity="1" stop-color="rgb(77.920532%, 56.184387%, 23.963928%)" offset="0.015625"/><stop stop-opacity="1" stop-color="rgb(78.135681%, 56.506348%, 24.275208%)" offset="0.0234375"/><stop stop-opacity="1" stop-color="rgb(78.35083%, 56.829834%, 24.584961%)" offset="0.03125"/><stop stop-opacity="1" stop-color="rgb(78.565979%, 57.15332%, 24.89624%)" offset="0.0390625"/><stop stop-opacity="1" stop-color="rgb(78.781128%, 57.476807%, 25.205994%)" offset="0.046875"/><stop stop-opacity="1" stop-color="rgb(78.996277%, 57.800293%, 25.515747%)" offset="0.0546875"/><stop stop-opacity="1" stop-color="rgb(79.211426%, 58.123779%, 25.827026%)" offset="0.0625"/><stop stop-opacity="1" stop-color="rgb(79.426575%, 58.44574%, 26.13678%)" offset="0.0703125"/><stop stop-opacity="1" stop-color="rgb(79.641724%, 58.769226%, 26.448059%)" offset="0.078125"/><stop stop-opacity="1" stop-color="rgb(79.856873%, 59.092712%, 26.757812%)" offset="0.0859375"/><stop stop-opacity="1" stop-color="rgb(80.072021%, 59.416199%, 27.069092%)" offset="0.09375"/><stop stop-opacity="1" stop-color="rgb(80.28717%, 59.739685%, 27.378845%)" offset="0.101562"/><stop stop-opacity="1" stop-color="rgb(80.502319%, 60.061646%, 27.688599%)" offset="0.109375"/><stop stop-opacity="1" stop-color="rgb(80.717468%, 60.385132%, 27.999878%)" offset="0.117188"/><stop stop-opacity="1" stop-color="rgb(80.932617%, 60.708618%, 28.309631%)" offset="0.125"/><stop stop-opacity="1" stop-color="rgb(81.147766%, 61.032104%, 28.620911%)" offset="0.132812"/><stop stop-opacity="1" stop-color="rgb(81.362915%, 61.355591%, 28.930664%)" offset="0.140625"/><stop stop-opacity="1" stop-color="rgb(81.578064%, 61.677551%, 29.241943%)" offset="0.148438"/><stop stop-opacity="1" stop-color="rgb(81.793213%, 62.001038%, 29.551697%)" offset="0.15625"/><stop stop-opacity="1" stop-color="rgb(82.006836%, 62.324524%, 29.86145%)" offset="0.164062"/><stop stop-opacity="1" stop-color="rgb(82.221985%, 62.64801%, 30.172729%)" offset="0.171875"/><stop stop-opacity="1" stop-color="rgb(82.437134%, 62.971497%, 30.482483%)" offset="0.179688"/><stop stop-opacity="1" stop-color="rgb(82.652283%, 63.293457%, 30.793762%)" offset="0.1875"/><stop stop-opacity="1" stop-color="rgb(82.867432%, 63.616943%, 31.103516%)" offset="0.195312"/><stop stop-opacity="1" stop-color="rgb(83.082581%, 63.94043%, 31.414795%)" offset="0.203125"/><stop stop-opacity="1" stop-color="rgb(83.297729%, 64.263916%, 31.724548%)" offset="0.210938"/><stop stop-opacity="1" stop-color="rgb(83.512878%, 64.587402%, 32.034302%)" offset="0.21875"/><stop stop-opacity="1" stop-color="rgb(83.728027%, 64.910889%, 32.345581%)" offset="0.226562"/><stop stop-opacity="1" stop-color="rgb(83.943176%, 65.232849%, 32.655334%)" offset="0.234375"/><stop stop-opacity="1" stop-color="rgb(84.158325%, 65.556335%, 32.966614%)" offset="0.242187"/><stop stop-opacity="1" stop-color="rgb(84.373474%, 65.879822%, 33.276367%)" offset="0.25"/><stop stop-opacity="1" stop-color="rgb(84.588623%, 66.203308%, 33.587646%)" offset="0.257812"/><stop stop-opacity="1" stop-color="rgb(84.803772%, 66.526794%, 33.8974%)" offset="0.265625"/><stop stop-opacity="1" stop-color="rgb(85.018921%, 66.848755%, 34.207153%)" offset="0.273438"/><stop stop-opacity="1" stop-color="rgb(85.23407%, 67.172241%, 34.518433%)" offset="0.28125"/><stop stop-opacity="1" stop-color="rgb(85.449219%, 67.495728%, 34.828186%)" offset="0.289062"/><stop stop-opacity="1" stop-color="rgb(85.664368%, 67.819214%, 35.139465%)" offset="0.296875"/><stop stop-opacity="1" stop-color="rgb(85.879517%, 68.1427%, 35.449219%)" offset="0.304688"/><stop stop-opacity="1" stop-color="rgb(86.094666%, 68.464661%, 35.760498%)" offset="0.3125"/><stop stop-opacity="1" stop-color="rgb(86.309814%, 68.788147%, 36.070251%)" offset="0.320312"/><stop stop-opacity="1" stop-color="rgb(86.523438%, 69.111633%, 36.380005%)" offset="0.328125"/><stop stop-opacity="1" stop-color="rgb(86.738586%, 69.43512%, 36.691284%)" offset="0.335937"/><stop stop-opacity="1" stop-color="rgb(86.953735%, 69.758606%, 37.001038%)" offset="0.34375"/><stop stop-opacity="1" stop-color="rgb(87.168884%, 70.080566%, 37.312317%)" offset="0.351563"/><stop stop-opacity="1" stop-color="rgb(87.384033%, 70.404053%, 37.62207%)" offset="0.359375"/><stop stop-opacity="1" stop-color="rgb(87.599182%, 70.727539%, 37.93335%)" offset="0.367188"/><stop stop-opacity="1" stop-color="rgb(87.814331%, 71.051025%, 38.243103%)" offset="0.375"/><stop stop-opacity="1" stop-color="rgb(88.02948%, 71.374512%, 38.552856%)" offset="0.382812"/><stop stop-opacity="1" stop-color="rgb(88.244629%, 71.697998%, 38.864136%)" offset="0.390625"/><stop stop-opacity="1" stop-color="rgb(88.459778%, 72.019958%, 39.173889%)" offset="0.398438"/><stop stop-opacity="1" stop-color="rgb(88.674927%, 72.343445%, 39.485168%)" offset="0.40625"/><stop stop-opacity="1" stop-color="rgb(88.890076%, 72.666931%, 39.794922%)" offset="0.414063"/><stop stop-opacity="1" stop-color="rgb(89.105225%, 72.990417%, 40.106201%)" offset="0.421875"/><stop stop-opacity="1" stop-color="rgb(89.320374%, 73.313904%, 40.415955%)" offset="0.429688"/><stop stop-opacity="1" stop-color="rgb(89.535522%, 73.635864%, 40.725708%)" offset="0.4375"/><stop stop-opacity="1" stop-color="rgb(89.750671%, 73.959351%, 41.036987%)" offset="0.445312"/><stop stop-opacity="1" stop-color="rgb(89.96582%, 74.282837%, 41.346741%)" offset="0.453125"/><stop stop-opacity="1" stop-color="rgb(90.180969%, 74.606323%, 41.65802%)" offset="0.460938"/><stop stop-opacity="1" stop-color="rgb(90.396118%, 74.92981%, 41.967773%)" offset="0.46875"/><stop stop-opacity="1" stop-color="rgb(90.611267%, 75.25177%, 42.279053%)" offset="0.476562"/><stop stop-opacity="1" stop-color="rgb(90.826416%, 75.575256%, 42.588806%)" offset="0.484375"/><stop stop-opacity="1" stop-color="rgb(91.040039%, 75.898743%, 42.89856%)" offset="0.492187"/><stop stop-opacity="1" stop-color="rgb(91.255188%, 76.222229%, 43.209839%)" offset="0.5"/><stop stop-opacity="1" stop-color="rgb(91.470337%, 76.545715%, 43.519592%)" offset="0.507812"/><stop stop-opacity="1" stop-color="rgb(91.685486%, 76.867676%, 43.830872%)" offset="0.515625"/><stop stop-opacity="1" stop-color="rgb(91.900635%, 77.191162%, 44.140625%)" offset="0.523438"/><stop stop-opacity="1" stop-color="rgb(92.115784%, 77.514648%, 44.451904%)" offset="0.53125"/><stop stop-opacity="1" stop-color="rgb(92.330933%, 77.838135%, 44.761658%)" offset="0.539062"/><stop stop-opacity="1" stop-color="rgb(92.546082%, 78.161621%, 45.071411%)" offset="0.546875"/><stop stop-opacity="1" stop-color="rgb(92.76123%, 78.483582%, 45.38269%)" offset="0.554688"/><stop stop-opacity="1" stop-color="rgb(92.976379%, 78.807068%, 45.692444%)" offset="0.5625"/><stop stop-opacity="1" stop-color="rgb(93.191528%, 79.130554%, 46.003723%)" offset="0.570312"/><stop stop-opacity="1" stop-color="rgb(93.406677%, 79.454041%, 46.313477%)" offset="0.578125"/><stop stop-opacity="1" stop-color="rgb(93.621826%, 79.777527%, 46.624756%)" offset="0.585938"/><stop stop-opacity="1" stop-color="rgb(93.836975%, 80.101013%, 46.934509%)" offset="0.59375"/><stop stop-opacity="1" stop-color="rgb(94.052124%, 80.422974%, 47.244263%)" offset="0.601562"/><stop stop-opacity="1" stop-color="rgb(94.267273%, 80.74646%, 47.555542%)" offset="0.609375"/><stop stop-opacity="1" stop-color="rgb(94.482422%, 81.069946%, 47.865295%)" offset="0.617188"/><stop stop-opacity="1" stop-color="rgb(94.697571%, 81.393433%, 48.176575%)" offset="0.625"/><stop stop-opacity="1" stop-color="rgb(94.91272%, 81.716919%, 48.486328%)" offset="0.632812"/><stop stop-opacity="1" stop-color="rgb(95.127869%, 82.038879%, 48.797607%)" offset="0.640625"/><stop stop-opacity="1" stop-color="rgb(95.343018%, 82.362366%, 49.107361%)" offset="0.648438"/><stop stop-opacity="1" stop-color="rgb(95.556641%, 82.685852%, 49.417114%)" offset="0.65625"/><stop stop-opacity="1" stop-color="rgb(95.77179%, 83.009338%, 49.728394%)" offset="0.664062"/><stop stop-opacity="1" stop-color="rgb(95.986938%, 83.332825%, 50.038147%)" offset="0.671875"/><stop stop-opacity="1" stop-color="rgb(96.115112%, 83.59375%, 50.311279%)" offset="0.679688"/><stop stop-opacity="1" stop-color="rgb(96.151733%, 83.79364%, 50.547791%)" offset="0.6875"/><stop stop-opacity="1" stop-color="rgb(96.188354%, 83.99353%, 50.782776%)" offset="0.695312"/><stop stop-opacity="1" stop-color="rgb(96.22345%, 84.191895%, 51.017761%)" offset="0.703125"/><stop stop-opacity="1" stop-color="rgb(96.260071%, 84.390259%, 51.252747%)" offset="0.710938"/><stop stop-opacity="1" stop-color="rgb(96.296692%, 84.590149%, 51.487732%)" offset="0.71875"/><stop stop-opacity="1" stop-color="rgb(96.331787%, 84.788513%, 51.721191%)" offset="0.726563"/><stop stop-opacity="1" stop-color="rgb(96.368408%, 84.986877%, 51.956177%)" offset="0.734375"/><stop stop-opacity="1" stop-color="rgb(96.403503%, 85.186768%, 52.191162%)" offset="0.742188"/><stop stop-opacity="1" stop-color="rgb(96.440125%, 85.385132%, 52.426147%)" offset="0.75"/><stop stop-opacity="1" stop-color="rgb(96.47522%, 85.585022%, 52.661133%)" offset="0.757812"/><stop stop-opacity="1" stop-color="rgb(96.511841%, 85.783386%, 52.896118%)" offset="0.765625"/><stop stop-opacity="1" stop-color="rgb(96.546936%, 85.98175%, 53.131104%)" offset="0.773438"/><stop stop-opacity="1" stop-color="rgb(96.583557%, 86.181641%, 53.366089%)" offset="0.78125"/><stop stop-opacity="1" stop-color="rgb(96.620178%, 86.380005%, 53.601074%)" offset="0.789062"/><stop stop-opacity="1" stop-color="rgb(96.655273%, 86.578369%, 53.83606%)" offset="0.796875"/><stop stop-opacity="1" stop-color="rgb(96.691895%, 86.778259%, 54.071045%)" offset="0.804688"/><stop stop-opacity="1" stop-color="rgb(96.72699%, 86.976624%, 54.30603%)" offset="0.8125"/><stop stop-opacity="1" stop-color="rgb(96.763611%, 87.174988%, 54.53949%)" offset="0.820312"/><stop stop-opacity="1" stop-color="rgb(96.798706%, 87.374878%, 54.774475%)" offset="0.828125"/><stop stop-opacity="1" stop-color="rgb(96.835327%, 87.573242%, 55.00946%)" offset="0.835938"/><stop stop-opacity="1" stop-color="rgb(96.870422%, 87.771606%, 55.244446%)" offset="0.84375"/><stop stop-opacity="1" stop-color="rgb(96.907043%, 87.971497%, 55.479431%)" offset="0.851563"/><stop stop-opacity="1" stop-color="rgb(96.943665%, 88.169861%, 55.714417%)" offset="0.859375"/><stop stop-opacity="1" stop-color="rgb(96.97876%, 88.368225%, 55.949402%)" offset="0.867188"/><stop stop-opacity="1" stop-color="rgb(97.015381%, 88.568115%, 56.184387%)" offset="0.875"/><stop stop-opacity="1" stop-color="rgb(97.050476%, 88.766479%, 56.419373%)" offset="0.882813"/><stop stop-opacity="1" stop-color="rgb(97.087097%, 88.96637%, 56.654358%)" offset="0.890625"/><stop stop-opacity="1" stop-color="rgb(97.122192%, 89.164734%, 56.889343%)" offset="0.898438"/><stop stop-opacity="1" stop-color="rgb(97.158813%, 89.363098%, 57.122803%)" offset="0.90625"/><stop stop-opacity="1" stop-color="rgb(97.195435%, 89.562988%, 57.357788%)" offset="0.914062"/><stop stop-opacity="1" stop-color="rgb(97.23053%, 89.761353%, 57.592773%)" offset="0.921875"/><stop stop-opacity="1" stop-color="rgb(97.267151%, 89.959717%, 57.827759%)" offset="0.929688"/><stop stop-opacity="1" stop-color="rgb(97.302246%, 90.159607%, 58.062744%)" offset="0.9375"/><stop stop-opacity="1" stop-color="rgb(97.338867%, 90.357971%, 58.297729%)" offset="0.945312"/><stop stop-opacity="1" stop-color="rgb(97.373962%, 90.556335%, 58.532715%)" offset="0.953125"/><stop stop-opacity="1" stop-color="rgb(97.410583%, 90.756226%, 58.7677%)" offset="0.960938"/><stop stop-opacity="1" stop-color="rgb(97.445679%, 90.95459%, 59.002686%)" offset="0.96875"/><stop stop-opacity="1" stop-color="rgb(97.4823%, 91.152954%, 59.237671%)" offset="0.976562"/><stop stop-opacity="1" stop-color="rgb(97.518921%, 91.352844%, 59.472656%)" offset="0.984375"/><stop stop-opacity="1" stop-color="rgb(97.554016%, 91.551208%, 59.707642%)" offset="0.992188"/><stop stop-opacity="1" stop-color="rgb(97.58606%, 91.725159%, 59.912109%)" offset="1"/></linearGradient><clipPath id="e0872f917c"><path d="M 123 45 L 288.683594 45 L 288.683594 164 L 123 164 Z M 123 45 " clip-rule="nonzero"/></clipPath><clipPath id="d7921a5911"><path d="M 221.097656 57.710938 C 221.035156 57.648438 220.972656 57.589844 220.914062 57.53125 C 210.238281 46.996094 195.238281 43.390625 181.609375 46.707031 C 174.507812 48.4375 167.773438 52.042969 162.21875 57.527344 C 162.152344 57.589844 162.09375 57.648438 162.035156 57.707031 L 147.914062 71.8125 L 123.53125 96.164062 L 137.648438 110.257812 L 137.730469 110.339844 L 151.152344 123.746094 L 151.230469 123.828125 L 176.855469 149.417969 L 183.011719 155.5625 L 183.1875 155.738281 L 191.363281 163.902344 L 198.304688 156.96875 L 198.382812 156.886719 L 199.320312 155.953125 L 205.875 149.410156 L 211.804688 143.484375 L 213.328125 141.960938 L 230.050781 125.261719 L 191.566406 86.828125 L 177.257812 101.117188 L 201.238281 125.0625 L 191.363281 134.925781 L 165.734375 109.332031 L 165.65625 109.25 L 152.234375 95.847656 L 152.152344 95.765625 L 162.027344 85.90625 L 174.648438 73.300781 C 175.214844 72.734375 175.804688 72.203125 176.410156 71.699219 C 180.675781 68.199219 185.972656 66.300781 191.5625 66.300781 C 197 66.300781 202.152344 68.09375 206.351562 71.410156 C 206.472656 71.511719 206.589844 71.597656 206.710938 71.699219 C 207.320312 72.199219 207.910156 72.734375 208.476562 73.300781 L 230.773438 95.566406 L 245.28125 110.054688 L 247.007812 111.777344 L 246.886719 111.894531 L 274.308594 139.28125 L 288.542969 125.0625 Z M 221.097656 57.710938 " clip-rule="nonzero"/></clipPath><linearGradient x1="70.850003" gradientTransform="matrix(0.408565, 0, 0, 0.408021, 94.584643, 45.514739)" y1="145.080002" x2="474.730061" gradientUnits="userSpaceOnUse" y2="145.080002" id="fc8f992ff9"><stop stop-opacity="1" stop-color="rgb(77.598572%, 55.699158%, 23.498535%)" offset="0"/><stop stop-opacity="1" stop-color="rgb(77.705383%, 55.860901%, 23.654175%)" offset="0.0078125"/><stop stop-opacity="1" stop-color="rgb(77.920532%, 56.184387%, 23.963928%)" offset="0.015625"/><stop stop-opacity="1" stop-color="rgb(78.135681%, 56.506348%, 24.275208%)" offset="0.0234375"/><stop stop-opacity="1" stop-color="rgb(78.35083%, 56.829834%, 24.584961%)" offset="0.03125"/><stop stop-opacity="1" stop-color="rgb(78.565979%, 57.15332%, 24.89624%)" offset="0.0390625"/><stop stop-opacity="1" stop-color="rgb(78.781128%, 57.476807%, 25.205994%)" offset="0.046875"/><stop stop-opacity="1" stop-color="rgb(78.996277%, 57.800293%, 25.515747%)" offset="0.0546875"/><stop stop-opacity="1" stop-color="rgb(79.211426%, 58.122253%, 25.827026%)" offset="0.0625"/><stop stop-opacity="1" stop-color="rgb(79.426575%, 58.44574%, 26.13678%)" offset="0.0703125"/><stop stop-opacity="1" stop-color="rgb(79.641724%, 58.769226%, 26.448059%)" offset="0.078125"/><stop stop-opacity="1" stop-color="rgb(79.856873%, 59.092712%, 26.757812%)" offset="0.0859375"/><stop stop-opacity="1" stop-color="rgb(80.072021%, 59.416199%, 27.067566%)" offset="0.09375"/><stop stop-opacity="1" stop-color="rgb(80.28717%, 59.738159%, 27.378845%)" offset="0.101562"/><stop stop-opacity="1" stop-color="rgb(80.502319%, 60.061646%, 27.688599%)" offset="0.109375"/><stop stop-opacity="1" stop-color="rgb(80.717468%, 60.385132%, 27.999878%)" offset="0.117188"/><stop stop-opacity="1" stop-color="rgb(80.932617%, 60.708618%, 28.309631%)" offset="0.125"/><stop stop-opacity="1" stop-color="rgb(81.147766%, 61.032104%, 28.620911%)" offset="0.132812"/><stop stop-opacity="1" stop-color="rgb(81.362915%, 61.354065%, 28.930664%)" offset="0.140625"/><stop stop-opacity="1" stop-color="rgb(81.576538%, 61.677551%, 29.240417%)" offset="0.148438"/><stop stop-opacity="1" stop-color="rgb(81.791687%, 62.001038%, 29.551697%)" offset="0.15625"/><stop stop-opacity="1" stop-color="rgb(82.006836%, 62.324524%, 29.86145%)" offset="0.164062"/><stop stop-opacity="1" stop-color="rgb(82.221985%, 62.64801%, 30.172729%)" offset="0.171875"/><stop stop-opacity="1" stop-color="rgb(82.437134%, 62.971497%, 30.482483%)" offset="0.179688"/><stop stop-opacity="1" stop-color="rgb(82.652283%, 63.293457%, 30.793762%)" offset="0.1875"/><stop stop-opacity="1" stop-color="rgb(82.867432%, 63.616943%, 31.103516%)" offset="0.195312"/><stop stop-opacity="1" stop-color="rgb(83.082581%, 63.94043%, 31.413269%)" offset="0.203125"/><stop stop-opacity="1" stop-color="rgb(83.297729%, 64.263916%, 31.724548%)" offset="0.210937"/><stop stop-opacity="1" stop-color="rgb(83.512878%, 64.587402%, 32.034302%)" offset="0.21875"/><stop stop-opacity="1" stop-color="rgb(83.728027%, 64.909363%, 32.345581%)" offset="0.226562"/><stop stop-opacity="1" stop-color="rgb(83.943176%, 65.232849%, 32.655334%)" offset="0.234375"/><stop stop-opacity="1" stop-color="rgb(84.158325%, 65.556335%, 32.966614%)" offset="0.242188"/><stop stop-opacity="1" stop-color="rgb(84.373474%, 65.879822%, 33.276367%)" offset="0.25"/><stop stop-opacity="1" stop-color="rgb(84.588623%, 66.203308%, 33.586121%)" offset="0.257812"/><stop stop-opacity="1" stop-color="rgb(84.803772%, 66.525269%, 33.8974%)" offset="0.265625"/><stop stop-opacity="1" stop-color="rgb(85.018921%, 66.848755%, 34.207153%)" offset="0.273437"/><stop stop-opacity="1" stop-color="rgb(85.23407%, 67.172241%, 34.518433%)" offset="0.28125"/><stop stop-opacity="1" stop-color="rgb(85.449219%, 67.495728%, 34.828186%)" offset="0.289062"/><stop stop-opacity="1" stop-color="rgb(85.664368%, 67.819214%, 35.139465%)" offset="0.296875"/><stop stop-opacity="1" stop-color="rgb(85.877991%, 68.141174%, 35.449219%)" offset="0.304688"/><stop stop-opacity="1" stop-color="rgb(86.09314%, 68.464661%, 35.758972%)" offset="0.3125"/><stop stop-opacity="1" stop-color="rgb(86.308289%, 68.788147%, 36.070251%)" offset="0.320312"/><stop stop-opacity="1" stop-color="rgb(86.523438%, 69.111633%, 36.380005%)" offset="0.328125"/><stop stop-opacity="1" stop-color="rgb(86.738586%, 69.43512%, 36.691284%)" offset="0.335937"/><stop stop-opacity="1" stop-color="rgb(86.953735%, 69.75708%, 37.001038%)" offset="0.34375"/><stop stop-opacity="1" stop-color="rgb(87.168884%, 70.080566%, 37.312317%)" offset="0.351562"/><stop stop-opacity="1" stop-color="rgb(87.384033%, 70.404053%, 37.62207%)" offset="0.359375"/><stop stop-opacity="1" stop-color="rgb(87.599182%, 70.727539%, 37.931824%)" offset="0.367187"/><stop stop-opacity="1" stop-color="rgb(87.814331%, 71.051025%, 38.243103%)" offset="0.375"/><stop stop-opacity="1" stop-color="rgb(88.02948%, 71.372986%, 38.552856%)" offset="0.382812"/><stop stop-opacity="1" stop-color="rgb(88.244629%, 71.696472%, 38.864136%)" offset="0.390625"/><stop stop-opacity="1" stop-color="rgb(88.459778%, 72.019958%, 39.173889%)" offset="0.398438"/><stop stop-opacity="1" stop-color="rgb(88.674927%, 72.343445%, 39.483643%)" offset="0.40625"/><stop stop-opacity="1" stop-color="rgb(88.890076%, 72.666931%, 39.794922%)" offset="0.414062"/><stop stop-opacity="1" stop-color="rgb(89.105225%, 72.990417%, 40.104675%)" offset="0.421875"/><stop stop-opacity="1" stop-color="rgb(89.320374%, 73.312378%, 40.415955%)" offset="0.429687"/><stop stop-opacity="1" stop-color="rgb(89.535522%, 73.635864%, 40.725708%)" offset="0.4375"/><stop stop-opacity="1" stop-color="rgb(89.750671%, 73.959351%, 41.036987%)" offset="0.445312"/><stop stop-opacity="1" stop-color="rgb(89.96582%, 74.282837%, 41.346741%)" offset="0.453125"/><stop stop-opacity="1" stop-color="rgb(90.179443%, 74.606323%, 41.656494%)" offset="0.460937"/><stop stop-opacity="1" stop-color="rgb(90.394592%, 74.928284%, 41.967773%)" offset="0.46875"/><stop stop-opacity="1" stop-color="rgb(90.609741%, 75.25177%, 42.277527%)" offset="0.476562"/><stop stop-opacity="1" stop-color="rgb(90.82489%, 75.575256%, 42.588806%)" offset="0.484375"/><stop stop-opacity="1" stop-color="rgb(91.040039%, 75.898743%, 42.89856%)" offset="0.492187"/><stop stop-opacity="1" stop-color="rgb(91.255188%, 76.222229%, 43.209839%)" offset="0.5"/><stop stop-opacity="1" stop-color="rgb(91.470337%, 76.544189%, 43.519592%)" offset="0.507813"/><stop stop-opacity="1" stop-color="rgb(91.685486%, 76.867676%, 43.829346%)" offset="0.515625"/><stop stop-opacity="1" stop-color="rgb(91.900635%, 77.191162%, 44.140625%)" offset="0.523438"/><stop stop-opacity="1" stop-color="rgb(92.115784%, 77.514648%, 44.450378%)" offset="0.53125"/><stop stop-opacity="1" stop-color="rgb(92.330933%, 77.838135%, 44.761658%)" offset="0.539062"/><stop stop-opacity="1" stop-color="rgb(92.546082%, 78.160095%, 45.071411%)" offset="0.546875"/><stop stop-opacity="1" stop-color="rgb(92.76123%, 78.483582%, 45.38269%)" offset="0.554688"/><stop stop-opacity="1" stop-color="rgb(92.976379%, 78.807068%, 45.692444%)" offset="0.5625"/><stop stop-opacity="1" stop-color="rgb(93.191528%, 79.130554%, 46.002197%)" offset="0.570312"/><stop stop-opacity="1" stop-color="rgb(93.406677%, 79.454041%, 46.313477%)" offset="0.578125"/><stop stop-opacity="1" stop-color="rgb(93.621826%, 79.776001%, 46.62323%)" offset="0.585938"/><stop stop-opacity="1" stop-color="rgb(93.836975%, 80.099487%, 46.934509%)" offset="0.59375"/><stop stop-opacity="1" stop-color="rgb(94.052124%, 80.422974%, 47.244263%)" offset="0.601562"/><stop stop-opacity="1" stop-color="rgb(94.267273%, 80.74646%, 47.555542%)" offset="0.609375"/><stop stop-opacity="1" stop-color="rgb(94.480896%, 81.069946%, 47.865295%)" offset="0.617188"/><stop stop-opacity="1" stop-color="rgb(94.696045%, 81.391907%, 48.175049%)" offset="0.625"/><stop stop-opacity="1" stop-color="rgb(94.911194%, 81.715393%, 48.486328%)" offset="0.632812"/><stop stop-opacity="1" stop-color="rgb(95.126343%, 82.038879%, 48.796082%)" offset="0.640625"/><stop stop-opacity="1" stop-color="rgb(95.341492%, 82.362366%, 49.107361%)" offset="0.648438"/><stop stop-opacity="1" stop-color="rgb(95.556641%, 82.685852%, 49.417114%)" offset="0.65625"/><stop stop-opacity="1" stop-color="rgb(95.77179%, 83.007812%, 49.728394%)" offset="0.664062"/><stop stop-opacity="1" stop-color="rgb(95.986938%, 83.331299%, 50.038147%)" offset="0.671875"/><stop stop-opacity="1" stop-color="rgb(96.115112%, 83.59375%, 50.311279%)" offset="0.679688"/><stop stop-opacity="1" stop-color="rgb(96.151733%, 83.79364%, 50.547791%)" offset="0.6875"/><stop stop-opacity="1" stop-color="rgb(96.188354%, 83.992004%, 50.782776%)" offset="0.695312"/><stop stop-opacity="1" stop-color="rgb(96.22345%, 84.191895%, 51.016235%)" offset="0.703125"/><stop stop-opacity="1" stop-color="rgb(96.260071%, 84.390259%, 51.251221%)" offset="0.710938"/><stop stop-opacity="1" stop-color="rgb(96.296692%, 84.590149%, 51.486206%)" offset="0.71875"/><stop stop-opacity="1" stop-color="rgb(96.331787%, 84.788513%, 51.721191%)" offset="0.726562"/><stop stop-opacity="1" stop-color="rgb(96.368408%, 84.986877%, 51.956177%)" offset="0.734375"/><stop stop-opacity="1" stop-color="rgb(96.403503%, 85.186768%, 52.191162%)" offset="0.742188"/><stop stop-opacity="1" stop-color="rgb(96.440125%, 85.385132%, 52.426147%)" offset="0.75"/><stop stop-opacity="1" stop-color="rgb(96.47522%, 85.583496%, 52.661133%)" offset="0.757812"/><stop stop-opacity="1" stop-color="rgb(96.511841%, 85.783386%, 52.896118%)" offset="0.765625"/><stop stop-opacity="1" stop-color="rgb(96.546936%, 85.98175%, 53.131104%)" offset="0.773438"/><stop stop-opacity="1" stop-color="rgb(96.583557%, 86.180115%, 53.366089%)" offset="0.78125"/><stop stop-opacity="1" stop-color="rgb(96.620178%, 86.380005%, 53.601074%)" offset="0.789062"/><stop stop-opacity="1" stop-color="rgb(96.655273%, 86.578369%, 53.834534%)" offset="0.796875"/><stop stop-opacity="1" stop-color="rgb(96.691895%, 86.776733%, 54.069519%)" offset="0.804688"/><stop stop-opacity="1" stop-color="rgb(96.72699%, 86.976624%, 54.304504%)" offset="0.8125"/><stop stop-opacity="1" stop-color="rgb(96.763611%, 87.174988%, 54.53949%)" offset="0.820312"/><stop stop-opacity="1" stop-color="rgb(96.798706%, 87.373352%, 54.774475%)" offset="0.828125"/><stop stop-opacity="1" stop-color="rgb(96.835327%, 87.573242%, 55.00946%)" offset="0.835938"/><stop stop-opacity="1" stop-color="rgb(96.870422%, 87.771606%, 55.244446%)" offset="0.84375"/><stop stop-opacity="1" stop-color="rgb(96.907043%, 87.971497%, 55.479431%)" offset="0.851563"/><stop stop-opacity="1" stop-color="rgb(96.943665%, 88.169861%, 55.714417%)" offset="0.859375"/><stop stop-opacity="1" stop-color="rgb(96.97876%, 88.368225%, 55.949402%)" offset="0.867188"/><stop stop-opacity="1" stop-color="rgb(97.015381%, 88.568115%, 56.184387%)" offset="0.875"/><stop stop-opacity="1" stop-color="rgb(97.050476%, 88.766479%, 56.417847%)" offset="0.882813"/><stop stop-opacity="1" stop-color="rgb(97.087097%, 88.964844%, 56.652832%)" offset="0.890625"/><stop stop-opacity="1" stop-color="rgb(97.122192%, 89.164734%, 56.887817%)" offset="0.898438"/><stop stop-opacity="1" stop-color="rgb(97.158813%, 89.363098%, 57.122803%)" offset="0.90625"/><stop stop-opacity="1" stop-color="rgb(97.193909%, 89.561462%, 57.357788%)" offset="0.914062"/><stop stop-opacity="1" stop-color="rgb(97.23053%, 89.761353%, 57.592773%)" offset="0.921875"/><stop stop-opacity="1" stop-color="rgb(97.267151%, 89.959717%, 57.827759%)" offset="0.929688"/><stop stop-opacity="1" stop-color="rgb(97.302246%, 90.158081%, 58.062744%)" offset="0.9375"/><stop stop-opacity="1" stop-color="rgb(97.338867%, 90.357971%, 58.297729%)" offset="0.945312"/><stop stop-opacity="1" stop-color="rgb(97.373962%, 90.556335%, 58.532715%)" offset="0.953125"/><stop stop-opacity="1" stop-color="rgb(97.410583%, 90.7547%, 58.7677%)" offset="0.960938"/><stop stop-opacity="1" stop-color="rgb(97.445679%, 90.95459%, 59.00116%)" offset="0.96875"/><stop stop-opacity="1" stop-color="rgb(97.4823%, 91.152954%, 59.236145%)" offset="0.976562"/><stop stop-opacity="1" stop-color="rgb(97.517395%, 91.352844%, 59.47113%)" offset="0.984375"/><stop stop-opacity="1" stop-color="rgb(97.554016%, 91.551208%, 59.706116%)" offset="0.992188"/><stop stop-opacity="1" stop-color="rgb(97.58606%, 91.725159%, 59.910583%)" offset="1"/></linearGradient></defs><g clip-path="url(#2eff2e4b94)"><g clip-path="url(#02f462f727)"><path fill="#000000" d="M 5.601562 5.601562 L 369.398438 5.601562 L 369.398438 369.398438 L 5.601562 369.398438 Z M 5.601562 5.601562 " fill-opacity="1" fill-rule="nonzero"/></g></g><g clip-path="url(#be1cc89f6b)"><g clip-path="url(#5c0aabe035)"><path fill="url(#5279999b74)" d="M 94.585938 111.25 L 94.585938 204.644531 L 259.199219 204.644531 L 259.199219 111.25 Z M 94.585938 111.25 " fill-rule="nonzero"/></g></g><g clip-path="url(#e0872f917c)"><g clip-path="url(#d7921a5911)"><path fill="url(#fc8f992ff9)" d="M 123.53125 43.394531 L 123.53125 163.902344 L 288.542969 163.902344 L 288.542969 43.394531 Z M 123.53125 43.394531 " fill-rule="nonzero"/></g></g><g fill="#ffffff" fill-opacity="1"><g transform="translate(70.157747, 260.882788)"><g><path d="M 20.015625 0.5 C 16.160156 0.5 12.957031 -0.265625 10.40625 -1.796875 C 7.863281 -3.328125 5.96875 -5.460938 4.71875 -8.203125 C 3.46875 -10.953125 2.84375 -14.175781 2.84375 -17.875 C 2.84375 -21.46875 3.457031 -24.632812 4.6875 -27.375 C 5.925781 -30.125 7.800781 -32.269531 10.3125 -33.8125 C 12.820312 -35.363281 15.988281 -36.140625 19.8125 -36.140625 C 23.507812 -36.140625 26.351562 -35.628906 28.34375 -34.609375 C 30.34375 -33.597656 31.34375 -32.296875 31.34375 -30.703125 C 31.34375 -29.566406 30.984375 -28.707031 30.265625 -28.125 C 29.554688 -27.539062 28.367188 -27.1875 26.703125 -27.0625 C 26.703125 -30.15625 26.160156 -32.359375 25.078125 -33.671875 C 24.003906 -34.984375 22.1875 -35.640625 19.625 -35.640625 C 16.925781 -35.640625 14.753906 -35.046875 13.109375 -33.859375 C 11.460938 -32.679688 10.265625 -30.785156 9.515625 -28.171875 C 8.765625 -25.566406 8.390625 -22.132812 8.390625 -17.875 C 8.390625 -13.582031 8.804688 -10.128906 9.640625 -7.515625 C 10.472656 -4.898438 11.800781 -2.992188 13.625 -1.796875 C 15.457031 -0.597656 17.851562 0 20.8125 0 C 21.78125 0 22.710938 -0.0703125 23.609375 -0.21875 C 24.515625 -0.375 25.316406 -0.550781 26.015625 -0.75 L 26.015625 -12.578125 C 26.015625 -14.835938 24.648438 -15.96875 21.921875 -15.96875 L 21.71875 -15.96875 L 21.71875 -16.46875 L 34.703125 -16.46875 L 34.703125 -15.96875 L 34.5 -15.96875 C 33.195312 -15.96875 32.296875 -15.664062 31.796875 -15.0625 C 31.296875 -14.46875 31.046875 -13.570312 31.046875 -12.375 L 31.046875 -1.796875 C 29.390625 -1.035156 27.675781 -0.460938 25.90625 -0.078125 C 24.144531 0.304688 22.179688 0.5 20.015625 0.5 Z M 20.015625 0.5 "/></g></g></g><g fill="#ffffff" fill-opacity="1"><g transform="translate(116.936779, 260.882788)"><g><path d="M 18.078125 0.5 C 14.148438 0.5 11.066406 -0.363281 8.828125 -2.09375 C 6.597656 -3.820312 5.484375 -6.71875 5.484375 -10.78125 L 5.484375 -31.75 C 5.484375 -34.007812 4.117188 -35.140625 1.390625 -35.140625 L 0.75 -35.140625 L 0.75 -35.640625 L 15.28125 -35.640625 L 15.28125 -35.140625 L 14.625 -35.140625 C 11.894531 -35.140625 10.53125 -33.957031 10.53125 -31.59375 L 10.53125 -10.484375 C 10.53125 -7.816406 10.890625 -5.734375 11.609375 -4.234375 C 12.328125 -2.742188 13.316406 -1.707031 14.578125 -1.125 C 15.835938 -0.539062 17.269531 -0.25 18.875 -0.25 C 22.269531 -0.25 24.9375 -1.140625 26.875 -2.921875 C 28.820312 -4.703125 29.796875 -7.15625 29.796875 -10.28125 L 29.796875 -31.75 C 29.796875 -34.007812 28.429688 -35.140625 25.703125 -35.140625 L 25.0625 -35.140625 L 25.0625 -35.640625 L 35.046875 -35.640625 L 35.046875 -35.140625 L 34.390625 -35.140625 C 31.660156 -35.140625 30.296875 -33.941406 30.296875 -31.546875 L 30.296875 -10.1875 C 30.296875 -6.851562 29.25 -4.238281 27.15625 -2.34375 C 25.0625 -0.445312 22.035156 0.5 18.078125 0.5 Z M 18.078125 0.5 "/></g></g></g><g fill="#ffffff" fill-opacity="1"><g transform="translate(163.865574, 260.882788)"><g><path d="M 12.875 0.5 C 9.582031 0.5 7.007812 -0.15625 5.15625 -1.46875 C 3.3125 -2.78125 2.390625 -4.421875 2.390625 -6.390625 C 2.390625 -8.722656 3.585938 -9.890625 5.984375 -9.890625 C 6.023438 -6.628906 6.632812 -4.164062 7.8125 -2.5 C 8.988281 -0.832031 10.796875 0 13.234375 0 C 15.359375 0 17.078125 -0.613281 18.390625 -1.84375 C 19.710938 -3.070312 20.375 -4.921875 20.375 -7.390625 C 20.375 -8.890625 20.097656 -10.101562 19.546875 -11.03125 C 18.992188 -11.96875 18.109375 -12.804688 16.890625 -13.546875 C 15.679688 -14.296875 14.09375 -15.125 12.125 -16.03125 C 11.09375 -16.53125 10.035156 -17.066406 8.953125 -17.640625 C 7.878906 -18.222656 6.882812 -18.921875 5.96875 -19.734375 C 5.050781 -20.554688 4.316406 -21.550781 3.765625 -22.71875 C 3.222656 -23.882812 2.953125 -25.296875 2.953125 -26.953125 C 2.953125 -29.953125 3.90625 -32.234375 5.8125 -33.796875 C 7.726562 -35.359375 10.285156 -36.140625 13.484375 -36.140625 C 15.410156 -36.140625 17.101562 -35.875 18.5625 -35.34375 C 20.03125 -34.8125 21.171875 -34.113281 21.984375 -33.25 C 22.804688 -32.382812 23.21875 -31.4375 23.21875 -30.40625 C 23.21875 -29.4375 22.847656 -28.675781 22.109375 -28.125 C 21.378906 -27.582031 20.429688 -27.3125 19.265625 -27.3125 C 19.265625 -30.070312 18.816406 -32.148438 17.921875 -33.546875 C 17.023438 -34.941406 15.523438 -35.640625 13.421875 -35.640625 C 11.492188 -35.640625 9.957031 -35.054688 8.8125 -33.890625 C 7.664062 -32.734375 7.09375 -31.019531 7.09375 -28.75 C 7.09375 -27.125 7.390625 -25.8125 7.984375 -24.8125 C 8.585938 -23.8125 9.488281 -22.953125 10.6875 -22.234375 C 11.882812 -21.523438 13.414062 -20.738281 15.28125 -19.875 C 16.9375 -19.101562 18.472656 -18.300781 19.890625 -17.46875 C 21.304688 -16.632812 22.445312 -15.578125 23.3125 -14.296875 C 24.175781 -13.015625 24.609375 -11.359375 24.609375 -9.328125 C 24.609375 -6.304688 23.582031 -3.910156 21.53125 -2.140625 C 19.488281 -0.378906 16.601562 0.5 12.875 0.5 Z M 12.875 0.5 "/></g></g></g><g fill="#ffffff" fill-opacity="1"><g transform="translate(202.158242, 260.882788)"><g><path d="M -0.546875 11.984375 L -0.546875 11.484375 L -0.09375 11.484375 C 1.332031 11.484375 2.546875 11.207031 3.546875 10.65625 C 4.546875 10.101562 5.3125 9.15625 5.84375 7.8125 C 6.375 6.46875 6.640625 4.628906 6.640625 2.296875 L 6.640625 -31.75 C 6.640625 -34.007812 5.273438 -35.140625 2.546875 -35.140625 L 1.890625 -35.140625 L 1.890625 -35.640625 L 16.421875 -35.640625 L 16.421875 -35.140625 L 15.78125 -35.140625 C 13.050781 -35.140625 11.6875 -33.941406 11.6875 -31.546875 L 11.6875 0.40625 C 11.6875 3.394531 11.175781 5.726562 10.15625 7.40625 C 9.144531 9.09375 7.78125 10.273438 6.0625 10.953125 C 4.351562 11.640625 2.429688 11.984375 0.296875 11.984375 Z M -0.546875 11.984375 "/></g></g></g><g fill="#ffffff" fill-opacity="1"><g transform="translate(231.115887, 260.882788)"><g><path d="M 18.515625 0.5 C 14.992188 0.5 12.066406 -0.265625 9.734375 -1.796875 C 7.398438 -3.328125 5.660156 -5.472656 4.515625 -8.234375 C 3.367188 -10.992188 2.796875 -14.222656 2.796875 -17.921875 C 2.796875 -21.617188 3.367188 -24.832031 4.515625 -27.5625 C 5.660156 -30.289062 7.40625 -32.410156 9.75 -33.921875 C 12.101562 -35.429688 15.046875 -36.1875 18.578125 -36.1875 C 21.898438 -36.1875 24.722656 -35.429688 27.046875 -33.921875 C 29.378906 -32.410156 31.15625 -30.28125 32.375 -27.53125 C 33.59375 -24.78125 34.203125 -21.5625 34.203125 -17.875 C 34.203125 -14.175781 33.59375 -10.953125 32.375 -8.203125 C 31.15625 -5.460938 29.378906 -3.328125 27.046875 -1.796875 C 24.722656 -0.265625 21.878906 0.5 18.515625 0.5 Z M 18.515625 0 C 22.078125 0 24.65625 -1.410156 26.25 -4.234375 C 27.851562 -7.066406 28.65625 -11.613281 28.65625 -17.875 C 28.65625 -24.125 27.851562 -28.65625 26.25 -31.46875 C 24.65625 -34.28125 22.097656 -35.6875 18.578125 -35.6875 C 15.015625 -35.6875 12.414062 -34.28125 10.78125 -31.46875 C 9.15625 -28.65625 8.34375 -24.125 8.34375 -17.875 C 8.34375 -11.613281 9.144531 -7.066406 10.75 -4.234375 C 12.363281 -1.410156 14.953125 0 18.515625 0 Z M 18.515625 0 "/></g></g></g><g fill="#ffffff" fill-opacity="1"><g transform="translate(279.292679, 260.882788)"><g><path d="M 15.671875 0 L 4.25 -32.453125 C 3.875 -33.484375 3.4375 -34.1875 2.9375 -34.5625 C 2.445312 -34.945312 1.6875 -35.140625 0.65625 -35.140625 L 0 -35.140625 L 0 -35.640625 L 13.734375 -35.640625 L 13.734375 -35.140625 L 12.53125 -35.140625 C 11.46875 -35.140625 10.6875 -35 10.1875 -34.71875 C 9.6875 -34.4375 9.4375 -33.945312 9.4375 -33.25 C 9.4375 -32.582031 9.601562 -31.800781 9.9375 -30.90625 L 16.125 -13.078125 C 17.289062 -9.785156 18.191406 -6.890625 18.828125 -4.390625 C 19.191406 -5.660156 19.625 -7.066406 20.125 -8.609375 C 20.625 -10.160156 21.101562 -11.648438 21.5625 -13.078125 L 27.25 -30.5 C 27.414062 -31.03125 27.550781 -31.492188 27.65625 -31.890625 C 27.757812 -32.296875 27.8125 -32.664062 27.8125 -33 C 27.8125 -33.800781 27.535156 -34.359375 26.984375 -34.671875 C 26.429688 -34.984375 25.59375 -35.140625 24.46875 -35.140625 L 21.515625 -35.140625 L 21.515625 -35.640625 L 33.703125 -35.640625 L 33.703125 -35.140625 L 31.90625 -35.140625 C 30.9375 -35.140625 30.1875 -34.859375 29.65625 -34.296875 C 29.125 -33.734375 28.625 -32.734375 28.15625 -31.296875 L 17.828125 0 Z M 15.671875 0 "/></g></g></g><g fill="#f4c074" fill-opacity="1"><g transform="translate(71.624707, 296.786761)"><g><path d="M 4.375 0 L 1.265625 0 L 1.265625 -11.6875 L 8.171875 -11.6875 L 8.171875 -9.15625 L 4.375 -9.15625 L 4.375 -6.921875 L 7.875 -6.921875 L 7.875 -4.390625 L 4.375 -4.390625 Z M 4.375 0 "/></g></g></g><g fill="#f4c074" fill-opacity="1"><g transform="translate(85.013532, 296.786761)"><g><path d="M 1.265625 0 L 1.265625 -11.6875 L 4.421875 -11.6875 L 4.421875 -2.546875 L 8.921875 -2.546875 L 8.921875 0 Z M 1.265625 0 "/></g></g></g><g fill="#f4c074" fill-opacity="1"><g transform="translate(99.105398, 296.786761)"><g><path d="M 12.203125 -5.859375 C 12.203125 -3.890625 11.71875 -2.394531 10.75 -1.375 C 9.789062 -0.351562 8.378906 0.15625 6.515625 0.15625 C 4.679688 0.15625 3.273438 -0.351562 2.296875 -1.375 C 1.316406 -2.40625 0.828125 -3.90625 0.828125 -5.875 C 0.828125 -7.820312 1.3125 -9.304688 2.28125 -10.328125 C 3.257812 -11.359375 4.675781 -11.875 6.53125 -11.875 C 8.394531 -11.875 9.804688 -11.363281 10.765625 -10.34375 C 11.722656 -9.320312 12.203125 -7.828125 12.203125 -5.859375 Z M 4.15625 -5.859375 C 4.15625 -3.597656 4.941406 -2.46875 6.515625 -2.46875 C 7.316406 -2.46875 7.910156 -2.742188 8.296875 -3.296875 C 8.679688 -3.847656 8.875 -4.703125 8.875 -5.859375 C 8.875 -7.023438 8.675781 -7.882812 8.28125 -8.4375 C 7.894531 -9 7.3125 -9.28125 6.53125 -9.28125 C 4.945312 -9.28125 4.15625 -8.140625 4.15625 -5.859375 Z M 4.15625 -5.859375 "/></g></g></g><g fill="#f4c074" fill-opacity="1"><g transform="translate(116.712472, 296.786761)"><g><path d="M 12.203125 -5.859375 C 12.203125 -3.890625 11.71875 -2.394531 10.75 -1.375 C 9.789062 -0.351562 8.378906 0.15625 6.515625 0.15625 C 4.679688 0.15625 3.273438 -0.351562 2.296875 -1.375 C 1.316406 -2.40625 0.828125 -3.90625 0.828125 -5.875 C 0.828125 -7.820312 1.3125 -9.304688 2.28125 -10.328125 C 3.257812 -11.359375 4.675781 -11.875 6.53125 -11.875 C 8.394531 -11.875 9.804688 -11.363281 10.765625 -10.34375 C 11.722656 -9.320312 12.203125 -7.828125 12.203125 -5.859375 Z M 4.15625 -5.859375 C 4.15625 -3.597656 4.941406 -2.46875 6.515625 -2.46875 C 7.316406 -2.46875 7.910156 -2.742188 8.296875 -3.296875 C 8.679688 -3.847656 8.875 -4.703125 8.875 -5.859375 C 8.875 -7.023438 8.675781 -7.882812 8.28125 -8.4375 C 7.894531 -9 7.3125 -9.28125 6.53125 -9.28125 C 4.945312 -9.28125 4.15625 -8.140625 4.15625 -5.859375 Z M 4.15625 -5.859375 "/></g></g></g><g fill="#f4c074" fill-opacity="1"><g transform="translate(134.31954, 296.786761)"><g><path d="M 4.421875 -4.25 L 4.421875 0 L 1.265625 0 L 1.265625 -11.6875 L 5.09375 -11.6875 C 8.269531 -11.6875 9.859375 -10.535156 9.859375 -8.234375 C 9.859375 -6.878906 9.195312 -5.832031 7.875 -5.09375 L 11.28125 0 L 7.703125 0 L 5.21875 -4.25 Z M 4.421875 -6.625 L 5.015625 -6.625 C 6.117188 -6.625 6.671875 -7.113281 6.671875 -8.09375 C 6.671875 -8.894531 6.128906 -9.296875 5.046875 -9.296875 L 4.421875 -9.296875 Z M 4.421875 -6.625 "/></g></g></g><g fill="#f4c074" fill-opacity="1"><g transform="translate(149.961288, 296.786761)"><g><path d="M 1.265625 0 L 1.265625 -11.6875 L 4.4375 -11.6875 L 4.4375 0 Z M 1.265625 0 "/></g></g></g><g fill="#f4c074" fill-opacity="1"><g transform="translate(160.226377, 296.786761)"><g><path d="M 12.390625 0 L 8.25 0 L 3.984375 -8.234375 L 3.90625 -8.234375 C 4.007812 -6.941406 4.0625 -5.953125 4.0625 -5.265625 L 4.0625 0 L 1.265625 0 L 1.265625 -11.6875 L 5.390625 -11.6875 L 9.640625 -3.5625 L 9.6875 -3.5625 C 9.613281 -4.738281 9.578125 -5.6875 9.578125 -6.40625 L 9.578125 -11.6875 L 12.390625 -11.6875 Z M 12.390625 0 "/></g></g></g><g fill="#f4c074" fill-opacity="1"><g transform="translate(178.440624, 296.786761)"><g><path d="M 5.953125 -6.84375 L 11 -6.84375 L 11 -0.546875 C 9.632812 -0.078125 8.128906 0.15625 6.484375 0.15625 C 4.679688 0.15625 3.285156 -0.363281 2.296875 -1.40625 C 1.316406 -2.445312 0.828125 -3.9375 0.828125 -5.875 C 0.828125 -7.757812 1.363281 -9.226562 2.4375 -10.28125 C 3.519531 -11.332031 5.03125 -11.859375 6.96875 -11.859375 C 7.707031 -11.859375 8.398438 -11.785156 9.046875 -11.640625 C 9.703125 -11.503906 10.273438 -11.332031 10.765625 -11.125 L 9.765625 -8.640625 C 8.921875 -9.054688 7.992188 -9.265625 6.984375 -9.265625 C 6.066406 -9.265625 5.351562 -8.960938 4.84375 -8.359375 C 4.34375 -7.765625 4.09375 -6.910156 4.09375 -5.796875 C 4.09375 -4.703125 4.320312 -3.867188 4.78125 -3.296875 C 5.238281 -2.722656 5.894531 -2.4375 6.75 -2.4375 C 7.21875 -2.4375 7.648438 -2.484375 8.046875 -2.578125 L 8.046875 -4.40625 L 5.953125 -4.40625 Z M 5.953125 -6.84375 "/></g></g></g><g fill="#f4c074" fill-opacity="1"><g transform="translate(195.120956, 296.786761)"><g/></g></g><g fill="#f4c074" fill-opacity="1"><g transform="translate(203.940008, 296.786761)"><g><path d="M 8.90625 -3.546875 C 8.90625 -2.828125 8.71875 -2.1875 8.34375 -1.625 C 7.976562 -1.0625 7.445312 -0.625 6.75 -0.3125 C 6.0625 0 5.253906 0.15625 4.328125 0.15625 C 3.546875 0.15625 2.890625 0.101562 2.359375 0 C 1.835938 -0.113281 1.289062 -0.304688 0.71875 -0.578125 L 0.71875 -3.390625 C 1.320312 -3.078125 1.945312 -2.832031 2.59375 -2.65625 C 3.25 -2.488281 3.847656 -2.40625 4.390625 -2.40625 C 4.859375 -2.40625 5.203125 -2.484375 5.421875 -2.640625 C 5.640625 -2.804688 5.75 -3.019531 5.75 -3.28125 C 5.75 -3.4375 5.703125 -3.570312 5.609375 -3.6875 C 5.523438 -3.8125 5.382812 -3.9375 5.1875 -4.0625 C 5 -4.1875 4.484375 -4.4375 3.640625 -4.8125 C 2.878906 -5.15625 2.304688 -5.488281 1.921875 -5.8125 C 1.535156 -6.144531 1.25 -6.519531 1.0625 -6.9375 C 0.882812 -7.363281 0.796875 -7.863281 0.796875 -8.4375 C 0.796875 -9.507812 1.1875 -10.347656 1.96875 -10.953125 C 2.757812 -11.554688 3.835938 -11.859375 5.203125 -11.859375 C 6.410156 -11.859375 7.644531 -11.578125 8.90625 -11.015625 L 7.9375 -8.578125 C 6.84375 -9.078125 5.898438 -9.328125 5.109375 -9.328125 C 4.703125 -9.328125 4.40625 -9.253906 4.21875 -9.109375 C 4.03125 -8.972656 3.9375 -8.796875 3.9375 -8.578125 C 3.9375 -8.347656 4.050781 -8.140625 4.28125 -7.953125 C 4.519531 -7.773438 5.164062 -7.445312 6.21875 -6.96875 C 7.226562 -6.519531 7.925781 -6.035156 8.3125 -5.515625 C 8.707031 -4.992188 8.90625 -4.335938 8.90625 -3.546875 Z M 8.90625 -3.546875 "/></g></g></g><g fill="#f4c074" fill-opacity="1"><g transform="translate(217.951979, 296.786761)"><g><path d="M 8.203125 0 L 1.265625 0 L 1.265625 -11.6875 L 8.203125 -11.6875 L 8.203125 -9.15625 L 4.421875 -9.15625 L 4.421875 -7.3125 L 7.921875 -7.3125 L 7.921875 -4.78125 L 4.421875 -4.78125 L 4.421875 -2.578125 L 8.203125 -2.578125 Z M 8.203125 0 "/></g></g></g><g fill="#f4c074" fill-opacity="1"><g transform="translate(231.500582, 296.786761)"><g><path d="M 4.421875 -4.25 L 4.421875 0 L 1.265625 0 L 1.265625 -11.6875 L 5.09375 -11.6875 C 8.269531 -11.6875 9.859375 -10.535156 9.859375 -8.234375 C 9.859375 -6.878906 9.195312 -5.832031 7.875 -5.09375 L 11.28125 0 L 7.703125 0 L 5.21875 -4.25 Z M 4.421875 -6.625 L 5.015625 -6.625 C 6.117188 -6.625 6.671875 -7.113281 6.671875 -8.09375 C 6.671875 -8.894531 6.128906 -9.296875 5.046875 -9.296875 L 4.421875 -9.296875 Z M 4.421875 -6.625 "/></g></g></g><g fill="#f4c074" fill-opacity="1"><g transform="translate(247.14233, 296.786761)"><g><path d="M 7.828125 -11.6875 L 11.359375 -11.6875 L 7.53125 0 L 3.8125 0 L 0 -11.6875 L 3.546875 -11.6875 L 5.140625 -5.765625 C 5.472656 -4.453125 5.65625 -3.535156 5.6875 -3.015625 C 5.71875 -3.390625 5.789062 -3.851562 5.90625 -4.40625 C 6.019531 -4.96875 6.117188 -5.410156 6.203125 -5.734375 Z M 7.828125 -11.6875 "/></g></g></g><g fill="#f4c074" fill-opacity="1"><g transform="translate(263.063697, 296.786761)"><g><path d="M 1.265625 0 L 1.265625 -11.6875 L 4.4375 -11.6875 L 4.4375 0 Z M 1.265625 0 "/></g></g></g><g fill="#f4c074" fill-opacity="1"><g transform="translate(273.328778, 296.786761)"><g><path d="M 6.46875 -9.265625 C 5.71875 -9.265625 5.128906 -8.957031 4.703125 -8.34375 C 4.285156 -7.726562 4.078125 -6.878906 4.078125 -5.796875 C 4.078125 -3.546875 4.929688 -2.421875 6.640625 -2.421875 C 7.160156 -2.421875 7.660156 -2.492188 8.140625 -2.640625 C 8.628906 -2.785156 9.117188 -2.957031 9.609375 -3.15625 L 9.609375 -0.484375 C 8.628906 -0.0546875 7.523438 0.15625 6.296875 0.15625 C 4.535156 0.15625 3.179688 -0.351562 2.234375 -1.375 C 1.296875 -2.394531 0.828125 -3.875 0.828125 -5.8125 C 0.828125 -7.019531 1.054688 -8.082031 1.515625 -9 C 1.972656 -9.914062 2.628906 -10.617188 3.484375 -11.109375 C 4.335938 -11.609375 5.34375 -11.859375 6.5 -11.859375 C 7.757812 -11.859375 8.96875 -11.582031 10.125 -11.03125 L 9.15625 -8.546875 C 8.71875 -8.742188 8.285156 -8.910156 7.859375 -9.046875 C 7.429688 -9.191406 6.96875 -9.265625 6.46875 -9.265625 Z M 6.46875 -9.265625 "/></g></g></g><g fill="#f4c074" fill-opacity="1"><g transform="translate(288.515147, 296.786761)"><g><path d="M 8.203125 0 L 1.265625 0 L 1.265625 -11.6875 L 8.203125 -11.6875 L 8.203125 -9.15625 L 4.421875 -9.15625 L 4.421875 -7.3125 L 7.921875 -7.3125 L 7.921875 -4.78125 L 4.421875 -4.78125 L 4.421875 -2.578125 L 8.203125 -2.578125 Z M 8.203125 0 "/></g></g></g><g fill="#f4c074" fill-opacity="1"><g transform="translate(302.06375, 296.786761)"><g><path d="M 8.90625 -3.546875 C 8.90625 -2.828125 8.71875 -2.1875 8.34375 -1.625 C 7.976562 -1.0625 7.445312 -0.625 6.75 -0.3125 C 6.0625 0 5.253906 0.15625 4.328125 0.15625 C 3.546875 0.15625 2.890625 0.101562 2.359375 0 C 1.835938 -0.113281 1.289062 -0.304688 0.71875 -0.578125 L 0.71875 -3.390625 C 1.320312 -3.078125 1.945312 -2.832031 2.59375 -2.65625 C 3.25 -2.488281 3.847656 -2.40625 4.390625 -2.40625 C 4.859375 -2.40625 5.203125 -2.484375 5.421875 -2.640625 C 5.640625 -2.804688 5.75 -3.019531 5.75 -3.28125 C 5.75 -3.4375 5.703125 -3.570312 5.609375 -3.6875 C 5.523438 -3.8125 5.382812 -3.9375 5.1875 -4.0625 C 5 -4.1875 4.484375 -4.4375 3.640625 -4.8125 C 2.878906 -5.15625 2.304688 -5.488281 1.921875 -5.8125 C 1.535156 -6.144531 1.25 -6.519531 1.0625 -6.9375 C 0.882812 -7.363281 0.796875 -7.863281 0.796875 -8.4375 C 0.796875 -9.507812 1.1875 -10.347656 1.96875 -10.953125 C 2.757812 -11.554688 3.835938 -11.859375 5.203125 -11.859375 C 6.410156 -11.859375 7.644531 -11.578125 8.90625 -11.015625 L 7.9375 -8.578125 C 6.84375 -9.078125 5.898438 -9.328125 5.109375 -9.328125 C 4.703125 -9.328125 4.40625 -9.253906 4.21875 -9.109375 C 4.03125 -8.972656 3.9375 -8.796875 3.9375 -8.578125 C 3.9375 -8.347656 4.050781 -8.140625 4.28125 -7.953125 C 4.519531 -7.773438 5.164062 -7.445312 6.21875 -6.96875 C 7.226562 -6.519531 7.925781 -6.035156 8.3125 -5.515625 C 8.707031 -4.992188 8.90625 -4.335938 8.90625 -3.546875 Z M 8.90625 -3.546875 "/></g></g></g></svg>